# xmcd
#
# Track frame offsets: 
#        150
#        2916
#        20894
#        35036
#        65457
#        70135
#        91808
#        103495
#        108682
#        128756
#        143457
#
# Disc length: 2093 seconds
#
# Revision: 0
# Processed by: cddbd v1.5.2PL0 Copyright (c) Steve Scherf et al.
# Submitted via: ExactAudioCopyFreeDBPlugin 1.0
#
DISCID=9c082b0b
DTITLE=Moses Sumney - Aromanticism
DYEAR=2017
DGENRE=Soul
TTITLE0=Man on the Moon (Reprise)
TTITLE1=Don't Bother Calling
TTITLE2=Plastic
TTITLE3=Quarrel
TTITLE4=Stoicism
TTITLE5=Lonely World
TTITLE6=Make Out in My Car
TTITLE7=The Cocoon-Eyed Baby
TTITLE8=Doomed
TTITLE9=Indulge Me
TTITLE10=Self-Help Tape
EXTD=
EXTT0=
EXTT1=
EXTT2=
EXTT3=
EXTT4=
EXTT5=
EXTT6=
EXTT7=
EXTT8=
EXTT9=
EXTT10=
PLAYORDER=
